<svg width="40" height="40" viewBox="0 0 40 40" fill="none" xmlns="http://www.w3.org/2000/svg">
<path d="M38.1705 10.8391C37.7343 9.19673 36.4492 7.90325 34.8174 7.4643C31.8598 6.66666 20 6.66666 20 6.66666C20 6.66666 8.14028 6.66666 5.18257 7.4643C3.55084 7.90332 2.2657 9.19673 1.82952 10.8391C1.03702 13.816 1.03702 20.0269 1.03702 20.0269C1.03702 20.0269 1.03702 26.2379 1.82952 29.2148C2.2657 30.8571 3.55084 32.0967 5.18257 32.5357C8.14028 33.3333 20 33.3333 20 33.3333C20 33.3333 31.8597 33.3333 34.8174 32.5357C36.4492 32.0967 37.7343 30.8571 38.1705 29.2148C38.963 26.2379 38.963 20.0269 38.963 20.0269C38.963 20.0269 38.963 13.816 38.1705 10.8391ZM16.1212 25.666V14.3878L26.0336 20.0271L16.1212 25.666Z" fill="#282824"/>
</svg>
